<svg width="697" height="469" viewBox="0 0 697 469" fill="none" xmlns="http://www.w3.org/2000/svg">
<path d="M759.124 310.969H433.7V487.523H759.124V310.969Z" fill="#FEC401"/>
<path d="M759.297 459.77V487.523H433.7V310.969H759.297V402.235" stroke="#35363A" stroke-width="5" stroke-miterlimit="10" stroke-linecap="round" stroke-linejoin="round"/>
<path d="M510.25 365.909H469.204V392.646H510.25V365.909Z" fill="white"/>
<path d="M723.793 365.909H682.747V392.646H723.793V365.909Z" fill="white"/>
<path d="M638.584 487.522H554.24V413.968C554.24 398.85 573.118 386.554 596.325 386.554C619.533 386.554 638.411 398.85 638.411 413.968V487.522H638.584Z" fill="white"/>
<path d="M510.25 365.909H469.204V392.646H510.25V365.909Z" stroke="#35363A" stroke-width="5" stroke-miterlimit="10" stroke-linecap="round" stroke-linejoin="round"/>
<path d="M723.793 365.909H682.747V392.646H723.793V365.909Z" stroke="#35363A" stroke-width="5" stroke-miterlimit="10" stroke-linecap="round" stroke-linejoin="round"/>
<path d="M638.584 487.522H554.24V413.968C554.24 398.85 573.118 386.554 596.325 386.554C619.533 386.554 638.411 398.85 638.411 413.968V487.522H638.584Z" stroke="#35363A" stroke-width="5" stroke-miterlimit="10" stroke-linecap="round" stroke-linejoin="round"/>
<path d="M441.147 334.547C430.409 334.547 421.75 328.906 421.75 321.912V263.812H460.545V321.912C460.545 328.906 451.885 334.547 441.147 334.547Z" fill="white"/>
<path d="M479.942 334.547C469.204 334.547 460.545 328.906 460.545 321.912V263.812H499.34V321.912C499.34 328.906 490.68 334.547 479.942 334.547Z" fill="#FEC401"/>
<path d="M518.736 334.547C507.998 334.547 499.339 328.906 499.339 321.912V263.812H538.133V321.912C538.133 328.906 529.474 334.547 518.736 334.547Z" fill="white"/>
<path d="M557.704 334.547C546.966 334.547 538.307 328.906 538.307 321.912V263.812H577.101V321.912C577.101 328.906 568.442 334.547 557.704 334.547Z" fill="#FEC401"/>
<path d="M596.499 334.547C585.761 334.547 577.102 328.906 577.102 321.912V263.812H615.896V321.912C615.896 328.906 607.237 334.547 596.499 334.547Z" fill="white"/>
<path d="M635.294 334.547C624.556 334.547 615.896 328.906 615.896 321.912V263.812H654.691V321.912C654.864 328.906 646.032 334.547 635.294 334.547Z" fill="#FEC401"/>
<path d="M674.261 334.547C663.523 334.547 654.863 328.906 654.863 321.912V263.812H693.658V321.912C693.658 328.906 684.998 334.547 674.261 334.547Z" fill="white"/>
<path d="M713.055 334.547C702.318 334.547 693.658 328.906 693.658 321.912V263.812H732.453V321.912C732.453 328.906 723.793 334.547 713.055 334.547Z" fill="#FEC401"/>
<path d="M441.147 334.547C430.409 334.547 421.75 328.906 421.75 321.912V263.812H460.545V321.912C460.545 328.906 451.885 334.547 441.147 334.547Z" stroke="#35363A" stroke-width="5" stroke-miterlimit="10" stroke-linecap="round" stroke-linejoin="round"/>
<path d="M479.942 334.547C469.204 334.547 460.545 328.906 460.545 321.912V263.812H499.34V321.912C499.34 328.906 490.68 334.547 479.942 334.547Z" stroke="#35363A" stroke-width="5" stroke-miterlimit="10" stroke-linecap="round" stroke-linejoin="round"/>
<path d="M518.736 334.547C507.998 334.547 499.339 328.906 499.339 321.912V263.812H538.133V321.912C538.133 328.906 529.474 334.547 518.736 334.547Z" stroke="#35363A" stroke-width="5" stroke-miterlimit="10" stroke-linecap="round" stroke-linejoin="round"/>
<path d="M557.704 334.547C546.966 334.547 538.307 328.906 538.307 321.912V263.812H577.101V321.912C577.101 328.906 568.442 334.547 557.704 334.547Z" stroke="#35363A" stroke-width="5" stroke-miterlimit="10" stroke-linecap="round" stroke-linejoin="round"/>
<path d="M596.499 334.547C585.761 334.547 577.102 328.906 577.102 321.912V263.812H615.896V321.912C615.896 328.906 607.237 334.547 596.499 334.547Z" stroke="#35363A" stroke-width="5" stroke-miterlimit="10" stroke-linecap="round" stroke-linejoin="round"/>
<path d="M635.294 334.547C624.556 334.547 615.896 328.906 615.896 321.912V263.812H654.691V321.912C654.864 328.906 646.032 334.547 635.294 334.547Z" stroke="#35363A" stroke-width="5" stroke-miterlimit="10" stroke-linecap="round" stroke-linejoin="round"/>
<path d="M674.261 334.547C663.523 334.547 654.863 328.906 654.863 321.912V263.812H693.658V321.912C693.658 328.906 684.998 334.547 674.261 334.547Z" stroke="#35363A" stroke-width="5" stroke-miterlimit="10" stroke-linecap="round" stroke-linejoin="round"/>
<path d="M713.055 334.547C702.318 334.547 693.658 328.906 693.658 321.912V263.812H732.453V321.912C732.453 328.906 723.793 334.547 713.055 334.547Z" stroke="#35363A" stroke-width="5" stroke-miterlimit="10" stroke-linecap="round" stroke-linejoin="round"/>
<path d="M514.936 226.434H505.256L490.243 191.638L499.072 190.003L514.936 226.434Z" fill="#FEC401"/>
<path d="M514.936 226.434H505.256L490.243 191.638L499.072 190.003L514.936 226.434Z" stroke="#35363A" stroke-width="5" stroke-miterlimit="10" stroke-linecap="round" stroke-linejoin="round"/>
<path d="M517.58 198.964H497.01C487.734 198.964 480.25 194.06 480.25 188.046C480.25 182.004 487.779 177.129 497.01 177.129H517.58V198.964Z" fill="white"/>
<path d="M517.58 198.964H497.01C487.734 198.964 480.25 194.06 480.25 188.046C480.25 182.004 487.779 177.129 497.01 177.129H517.58V198.964Z" stroke="#35363A" stroke-width="5" stroke-miterlimit="10" stroke-linecap="round" stroke-linejoin="round"/>
<path d="M561.945 189.196C562.912 186.529 560.377 183.856 556.282 183.226C552.187 182.597 548.084 184.248 547.117 186.916C546.15 189.583 548.686 192.256 552.78 192.886C556.875 193.515 560.978 191.864 561.945 189.196Z" fill="white"/>
<path d="M558.854 179.581C564.276 180.749 568.22 184.106 568.22 188.047C568.22 191.987 564.276 195.315 558.854 196.512" stroke="#35363A" stroke-width="5" stroke-miterlimit="10" stroke-linecap="round" stroke-linejoin="round"/>
<path d="M558.854 176.107C567.144 177.363 573.328 182.238 573.328 188.017C573.328 193.827 567.144 198.672 558.854 199.928" stroke="#35363A" stroke-width="5" stroke-miterlimit="10" stroke-linecap="round" stroke-linejoin="round"/>
<path d="M558.854 172.079C570.505 173.393 579.378 180.048 579.378 188.018C579.378 195.987 570.505 202.642 558.854 203.956" stroke="#35363A" stroke-width="5" stroke-miterlimit="10" stroke-linecap="round" stroke-linejoin="round"/>
<path d="M561.945 189.196C562.912 186.529 560.377 183.856 556.282 183.226C552.187 182.597 548.084 184.248 547.117 186.916C546.15 189.583 548.686 192.256 552.78 192.886C556.875 193.515 560.978 191.864 561.945 189.196Z" stroke="#35363A" stroke-width="5" stroke-miterlimit="10" stroke-linecap="round" stroke-linejoin="round"/>
<path d="M554.552 207.517L504.584 198.964V177.1L554.552 168.547V207.517Z" fill="#FEC401"/>
<path d="M526.856 173.276L533.847 172.079" stroke="#35363A" stroke-width="5" stroke-miterlimit="10" stroke-linecap="round" stroke-linejoin="round"/>
<path d="M544.289 170.298L554.552 168.547V207.517L504.584 198.964V177.1L520.493 174.385" stroke="#35363A" stroke-width="5" stroke-miterlimit="10" stroke-linecap="round" stroke-linejoin="round"/>
<path d="M510.41 176.107V199.957" stroke="#35363A" stroke-width="5" stroke-miterlimit="10" stroke-linecap="round" stroke-linejoin="round"/>
<path d="M699.451 126.631H552.797C541.63 126.631 532.75 120.759 532.75 113.572V-30.422C532.75 -37.6962 541.765 -43.4805 552.797 -43.4805H699.451C710.619 -43.4805 719.499 -37.6085 719.499 -30.422V113.485C719.633 120.759 710.619 126.631 699.451 126.631Z" fill="#FEC401"/>
<path d="M532.75 20.3222V-30.422C532.75 -37.6962 541.765 -43.4805 552.797 -43.4805H699.451C710.619 -43.4805 719.499 -37.6085 719.499 -30.422V113.485C719.499 120.759 710.484 126.543 699.451 126.543H552.797C541.63 126.543 532.75 120.671 532.75 113.485V65.1945" stroke="#35363A" stroke-width="5" stroke-miterlimit="10" stroke-linecap="round" stroke-linejoin="round"/>
<path d="M532.75 45.8262V36.5361" stroke="#35363A" stroke-width="5" stroke-miterlimit="10" stroke-linecap="round" stroke-linejoin="round"/>
<path d="M690.034 -23.9365H562.351V12.084H690.034V-23.9365Z" fill="white"/>
<path d="M690.034 -23.9365H562.351V12.084H690.034V-23.9365Z" stroke="#35363A" stroke-width="5" stroke-miterlimit="10" stroke-linecap="round" stroke-linejoin="round"/>
<path d="M591.009 27.1582H562.351V45.8258H591.009V27.1582Z" fill="white"/>
<path d="M591.009 61.1631H562.351V79.8306H591.009V61.1631Z" fill="white"/>
<path d="M591.009 95.0801H562.351V113.748H591.009V95.0801Z" fill="white"/>
<path d="M690.034 27.1582H661.376V45.8258H690.034V27.1582Z" fill="white"/>
<path d="M690.034 61.1631H661.376V113.835H690.034V61.1631Z" fill="white"/>
<path d="M641.732 27.1582H613.074V45.8258H641.732V27.1582Z" fill="white"/>
<path d="M641.732 61.1631H613.074V79.8306H641.732V61.1631Z" fill="white"/>
<path d="M641.732 95.0801H613.074V113.748H641.732V95.0801Z" fill="white"/>
<path d="M591.009 27.1582H562.351V45.8258H591.009V27.1582Z" stroke="#35363A" stroke-width="5" stroke-miterlimit="10" stroke-linecap="round" stroke-linejoin="round"/>
<path d="M591.009 61.1631H562.351V79.8306H591.009V61.1631Z" stroke="#35363A" stroke-width="5" stroke-miterlimit="10" stroke-linecap="round" stroke-linejoin="round"/>
<path d="M591.009 95.0801H562.351V113.748H591.009V95.0801Z" stroke="#35363A" stroke-width="5" stroke-miterlimit="10" stroke-linecap="round" stroke-linejoin="round"/>
<path d="M690.034 27.1582H661.376V45.8258H690.034V27.1582Z" stroke="#35363A" stroke-width="5" stroke-miterlimit="10" stroke-linecap="round" stroke-linejoin="round"/>
<path d="M690.034 61.1631H661.376V113.835H690.034V61.1631Z" stroke="#35363A" stroke-width="5" stroke-miterlimit="10" stroke-linecap="round" stroke-linejoin="round"/>
<path d="M641.732 27.1582H613.074V45.8258H641.732V27.1582Z" stroke="#35363A" stroke-width="5" stroke-miterlimit="10" stroke-linecap="round" stroke-linejoin="round"/>
<path d="M641.732 61.1631H613.074V79.8306H641.732V61.1631Z" stroke="#35363A" stroke-width="5" stroke-miterlimit="10" stroke-linecap="round" stroke-linejoin="round"/>
<path d="M641.732 95.0801H613.074V113.748H641.732V95.0801Z" stroke="#35363A" stroke-width="5" stroke-miterlimit="10" stroke-linecap="round" stroke-linejoin="round"/>
<path d="M660.786 3.21112C661.907 3.06308 662.753 2.68768 663.324 2.08493C663.906 1.47161 664.196 0.673228 664.196 -0.310207C664.196 -0.71204 664.122 -1.061 663.974 -1.35709C663.837 -1.66375 663.636 -1.9334 663.372 -2.16604C663.118 -2.39868 662.816 -2.5996 662.468 -2.76879C662.119 -2.93799 661.738 -3.09661 661.325 -3.24465L660.786 3.21112ZM659.771 -13.5549C659.179 -13.4808 658.677 -13.3539 658.264 -13.1742C657.852 -13.005 657.513 -12.7935 657.249 -12.5397C656.985 -12.2859 656.789 -12.0004 656.662 -11.6832C656.546 -11.3659 656.488 -11.0328 656.488 -10.6839C656.488 -10.282 656.556 -9.92778 656.694 -9.62111C656.842 -9.32503 657.037 -9.05537 657.281 -8.81216C657.534 -8.57952 657.831 -8.36803 658.169 -8.17769C658.507 -7.99792 658.877 -7.82872 659.279 -7.67011L659.771 -13.5549ZM661.627 -6.90874C662.388 -6.6761 663.144 -6.41702 663.895 -6.13151C664.646 -5.85657 665.317 -5.49703 665.91 -5.0529C666.512 -4.60877 666.999 -4.0536 667.369 -3.38741C667.739 -2.73178 667.924 -1.90697 667.924 -0.912957C667.924 0.0704775 667.76 0.995752 667.432 1.86287C667.104 2.71941 666.623 3.48078 665.989 4.14697C665.354 4.8026 664.577 5.3419 663.657 5.76488C662.737 6.17729 661.685 6.4205 660.501 6.49453L660.31 8.82622C660.3 9.06943 660.194 9.2915 659.993 9.49242C659.803 9.70391 659.56 9.80965 659.263 9.80965H657.82L658.106 6.41522C656.868 6.24602 655.705 5.90764 654.616 5.40006C653.527 4.89248 652.601 4.26329 651.84 3.5125L653.046 1.72011C653.151 1.56149 653.289 1.4346 653.458 1.33943C653.638 1.23368 653.828 1.18081 654.029 1.18081C654.262 1.18081 654.51 1.2654 654.775 1.4346C655.039 1.59321 655.34 1.78356 655.679 2.00562C656.017 2.21711 656.403 2.43389 656.837 2.65596C657.27 2.87802 657.783 3.04193 658.375 3.14768L658.962 -3.94257C658.211 -4.15406 657.466 -4.40256 656.726 -4.68808C655.996 -4.97359 655.335 -5.34899 654.743 -5.81427C654.161 -6.29012 653.691 -6.88759 653.331 -7.60666C652.972 -8.32573 652.792 -9.22457 652.792 -10.3032C652.792 -11.1068 652.95 -11.8894 653.268 -12.6507C653.585 -13.4227 654.05 -14.11 654.663 -14.7128C655.287 -15.3155 656.049 -15.8125 656.948 -16.2038C657.846 -16.595 658.877 -16.8171 660.041 -16.87L660.215 -18.8686C660.236 -19.1224 660.342 -19.3497 660.532 -19.5506C660.723 -19.7515 660.971 -19.852 661.278 -19.852H662.721L662.468 -16.7431C663.588 -16.5633 664.556 -16.2408 665.37 -15.7755C666.184 -15.3208 666.888 -14.8079 667.48 -14.2369L666.528 -12.7935C666.391 -12.582 666.248 -12.4234 666.1 -12.3176C665.952 -12.2119 665.772 -12.159 665.561 -12.159C665.402 -12.159 665.212 -12.2066 664.99 -12.3018C664.767 -12.4075 664.519 -12.5291 664.244 -12.6666C663.969 -12.8146 663.657 -12.9627 663.308 -13.1107C662.97 -13.2588 662.594 -13.3804 662.182 -13.4755L661.627 -6.90874Z" fill="#35363A"/>
<path d="M637.56 3.05664H624.375" stroke="#35363A" stroke-width="5" stroke-miterlimit="10" stroke-linecap="round" stroke-linejoin="round"/>
<path d="M609.979 3.05664H596.794" stroke="#35363A" stroke-width="5" stroke-miterlimit="10" stroke-linecap="round" stroke-linejoin="round"/>
<path d="M241.773 527.944H29.7L2.5 422.869H268.973L241.773 527.944Z" fill="#FEC401"/>
<path d="M164.827 422.869H268.973L241.773 527.944H29.7L2.5 422.869H87.4455" stroke="#35363A" stroke-width="5" stroke-miterlimit="10" stroke-linecap="round" stroke-linejoin="round"/>
<path d="M122.209 422.869H135.736" stroke="#35363A" stroke-width="5" stroke-miterlimit="10" stroke-linecap="round" stroke-linejoin="round"/>
<path d="M268.972 548.22H31.445C26.645 548.22 22.7178 545.662 22.7178 542.535C22.7178 539.409 26.645 536.85 31.445 536.85H262.136L310.282 404.962C311.154 402.404 314.645 400.604 318.718 400.604H353.772C358.572 400.604 362.5 403.162 362.5 406.288C362.5 409.415 358.572 411.973 353.772 411.973H325.554L277.409 543.956C276.536 546.42 273.045 548.22 268.972 548.22Z" fill="#FEC401"/>
<path d="M268.972 548.22H31.445C26.645 548.22 22.7178 545.662 22.7178 542.535C22.7178 539.409 26.645 536.85 31.445 536.85H262.136L310.282 404.962C311.154 402.404 314.645 400.604 318.718 400.604H353.772C358.572 400.604 362.5 403.162 362.5 406.288C362.5 409.415 358.572 411.973 353.772 411.973H325.554L277.409 543.957C276.536 546.42 273.045 548.22 268.972 548.22Z" stroke="#35363A" stroke-width="5" stroke-miterlimit="10" stroke-linecap="round" stroke-linejoin="round"/>
<path d="M135.736 422.869V527.944" stroke="#35363A" stroke-width="5" stroke-miterlimit="10" stroke-linecap="round" stroke-linejoin="round"/>
<path d="M63.4453 422.869L78.718 527.944" stroke="#35363A" stroke-width="5" stroke-miterlimit="10" stroke-linecap="round" stroke-linejoin="round"/>
<path d="M208.028 422.869L192.755 527.944" stroke="#35363A" stroke-width="5" stroke-miterlimit="10" stroke-linecap="round" stroke-linejoin="round"/>
<path d="M11.9541 459.536H258.209" stroke="#35363A" stroke-width="5" stroke-miterlimit="10" stroke-linecap="round" stroke-linejoin="round"/>
<path d="M378.314 143.149H247.884V196.439H378.314V143.149Z" fill="white"/>
<path d="M378.314 143.149H247.884V196.439H378.314V143.149Z" stroke="#35363A" stroke-width="5" stroke-miterlimit="10" stroke-linecap="round" stroke-linejoin="round"/>
<path d="M378.314 154.085H247.884V168.091H378.314V154.085Z" fill="#FEC401"/>
<path d="M378.314 154.085H247.884V168.091H378.314V154.085Z" stroke="#35363A" stroke-width="5" stroke-miterlimit="10" stroke-linecap="round" stroke-linejoin="round"/>
<path d="M362.43 150.468H232V203.758H362.43V150.468Z" fill="#FEC401"/>
<path d="M267.771 203.758H232V150.468H362.43V203.758H309.096" stroke="#35363A" stroke-width="5" stroke-miterlimit="10" stroke-linecap="round" stroke-linejoin="round"/>
<path d="M294.89 203.758H283.655" stroke="#35363A" stroke-width="5" stroke-miterlimit="10" stroke-linecap="round" stroke-linejoin="round"/>
<path d="M362.43 161.403H232V175.409H362.43V161.403Z" fill="white"/>
<path d="M362.43 161.403H232V175.409H362.43V161.403Z" stroke="#35363A" stroke-width="5" stroke-miterlimit="10" stroke-linecap="round" stroke-linejoin="round"/>
<path d="M242.783 184.116H280.234" stroke="#35363A" stroke-width="5" stroke-miterlimit="10" stroke-linecap="round" stroke-linejoin="round"/>
<path d="M242.783 188.995H280.234" stroke="#35363A" stroke-width="5" stroke-miterlimit="10" stroke-linecap="round" stroke-linejoin="round"/>
<path d="M242.783 193.663H272.033" stroke="#35363A" stroke-width="5" stroke-miterlimit="10" stroke-linecap="round" stroke-linejoin="round"/>
<path d="M328.208 189.92C328.208 191.393 326.336 192.612 324.076 192.612C321.816 192.612 319.943 191.393 319.943 189.92C319.943 188.448 321.816 187.229 324.076 187.229C326.336 187.187 328.208 188.406 328.208 189.92Z" fill="white"/>
<path d="M328.208 189.92C328.208 191.393 326.336 192.612 324.076 192.612C321.816 192.612 319.943 191.393 319.943 189.92C319.943 188.448 321.816 187.229 324.076 187.229C326.336 187.187 328.208 188.406 328.208 189.92Z" stroke="#35363A" stroke-width="5" stroke-miterlimit="10" stroke-linecap="round" stroke-linejoin="round"/>
<path d="M340.283 189.92C340.283 191.393 338.411 192.612 336.151 192.612C333.891 192.612 332.019 191.393 332.019 189.92C332.019 188.448 333.891 187.229 336.151 187.229C338.476 187.187 340.283 188.406 340.283 189.92Z" fill="white"/>
<path d="M340.283 189.92C340.283 191.393 338.411 192.612 336.151 192.612C333.891 192.612 332.019 191.393 332.019 189.92C332.019 188.448 333.891 187.229 336.151 187.229C338.476 187.187 340.283 188.406 340.283 189.92Z" stroke="#35363A" stroke-width="5" stroke-miterlimit="10" stroke-linecap="round" stroke-linejoin="round"/>
<path d="M352.422 189.92C352.422 191.393 350.55 192.612 348.29 192.612C346.03 192.612 344.157 191.393 344.157 189.92C344.157 188.448 346.03 187.229 348.29 187.229C350.55 187.187 352.422 188.406 352.422 189.92Z" fill="white"/>
<path d="M352.422 189.92C352.422 191.393 350.55 192.612 348.29 192.612C346.03 192.612 344.157 191.393 344.157 189.92C344.157 188.448 346.03 187.229 348.29 187.229C350.55 187.187 352.422 188.406 352.422 189.92Z" stroke="#35363A" stroke-width="5" stroke-miterlimit="10" stroke-linecap="round" stroke-linejoin="round"/>
<path d="M246.599 253.553H138.211V342.312H246.599V253.553Z" fill="#FEC401"/>
<path d="M246.599 253.553H138.211V342.312H246.599V253.553Z" stroke="#35363A" stroke-width="5" stroke-miterlimit="10" stroke-linecap="round" stroke-linejoin="round"/>
<path d="M237.195 263.725L246.682 253.553H192.447H138.211L147.698 263.725L131.83 273.897H192.447H253.063L237.195 263.725Z" fill="white"/>
<path d="M237.195 263.725L246.682 253.553H192.447H138.211L147.698 263.725L131.83 273.897H192.447H253.063L237.195 263.725Z" stroke="#35363A" stroke-width="5" stroke-miterlimit="10" stroke-linecap="round" stroke-linejoin="round"/>
<path d="M263.894 362.655H121L131.83 273.896H253.063L263.894 362.655Z" fill="#FEC401"/>
<path d="M259.528 326.452L263.894 362.655H121L131.83 273.896H253.063L255.498 293.967" stroke="#35363A" stroke-width="5" stroke-miterlimit="10" stroke-linecap="round" stroke-linejoin="round"/>
<path d="M257.177 307.421L258.184 315.734" stroke="#35363A" stroke-width="5" stroke-miterlimit="10" stroke-linecap="round" stroke-linejoin="round"/>
<path d="M166.924 295.553C170.309 295.553 173.053 293.594 173.053 291.178C173.053 288.762 170.309 286.803 166.924 286.803C163.539 286.803 160.795 288.762 160.795 291.178C160.795 293.594 163.539 295.553 166.924 295.553Z" fill="white"/>
<path d="M166.924 295.553C170.309 295.553 173.053 293.594 173.053 291.178C173.053 288.762 170.309 286.803 166.924 286.803C163.539 286.803 160.795 288.762 160.795 291.178C160.795 293.594 163.539 295.553 166.924 295.553Z" stroke="#35363A" stroke-width="5" stroke-miterlimit="10" stroke-linecap="round" stroke-linejoin="round"/>
<path d="M217.97 295.553C221.355 295.553 224.098 293.594 224.098 291.178C224.098 288.762 221.355 286.803 217.97 286.803C214.585 286.803 211.841 288.762 211.841 291.178C211.841 293.594 214.585 295.553 217.97 295.553Z" fill="white"/>
<path d="M217.97 295.553C221.355 295.553 224.098 293.594 224.098 291.178C224.098 288.762 221.355 286.803 217.97 286.803C214.585 286.803 211.841 288.762 211.841 291.178C211.841 293.594 214.585 295.553 217.97 295.553Z" stroke="#35363A" stroke-width="5" stroke-miterlimit="10" stroke-linecap="round" stroke-linejoin="round"/>
<path d="M217.969 291.78C217.969 305.015 206.551 315.734 192.447 315.734C178.342 315.734 166.924 305.015 166.924 291.78" stroke="#35363A" stroke-width="5" stroke-miterlimit="10" stroke-linecap="round" stroke-linejoin="round"/>
<path d="M166.924 346.085H217.969" stroke="#35363A" stroke-width="5" stroke-miterlimit="10" stroke-linecap="round" stroke-linejoin="round"/>
<path d="M174.229 338.374H210.666" stroke="#35363A" stroke-width="5" stroke-miterlimit="10" stroke-linecap="round" stroke-linejoin="round"/>
</svg>
